<?xml version="1.0" standalone="no"?>
<!DOCTYPE svg PUBLIC "-//W3C//DTD SVG 20010904//EN"
 "http://www.w3.org/TR/2001/REC-SVG-20010904/DTD/svg10.dtd">
<svg version="1.0" xmlns="http://www.w3.org/2000/svg"
 width="818.000000pt" height="710.000000pt" viewBox="0 0 818.000000 710.000000"
 preserveAspectRatio="xMidYMid meet">

<g transform="translate(0.000000,710.000000) scale(0.100000,-0.100000)"
fill="#000000" stroke="none">
<path d="M126 6873 c2539 -4400 3958 -6853 3964 -6853 4 0 920 1581 2035 3513
1116 1931 2035 3523 2044 3536 15 24 15 24 -9 11 -14 -7 -1116 -652 -2450
-1433 -1334 -781 -2433 -1422 -2443 -1425 -16 -4 -17 25 -12 564 3 313 7 959
10 1437 l5 867 -1635 0 -1634 0 125 -217z m4737 -3682 c-422 -732 -770 -1331
-773 -1331 -6 0 -760 1306 -760 1317 0 9 2293 1354 2298 1348 2 -2 -342 -602
-765 -1334z"/>
</g>
</svg>
